# xmcd CD database file
#
# Track frame offsets:
#	150
#	24301
#	43448
#	67334
#	88392
#	110942
#	130600
#	159450
#	191372
#	218336
#	244656
#
# Disc length: 3448 seconds
#
# Revision: 0
# Processed by: cddbd v1.5.2PL0 Copyright (c) Steve Scherf et al.
# Submitted via: CDex 1.51
#
DISCID=9d0d760b
DTITLE=André Ceccarelli - Golden Land
DYEAR=2007
DGENRE=Jazz
TTITLE0=Love Whispers
TTITLE1=Five Plus Five
TTITLE2=Golden Land
TTITLE3=Free Three
TTITLE4=I'm Through With Love
TTITLE5=1er Novembre
TTITLE6=Though Dreamers Die
TTITLE7=This Side Up
TTITLE8=Golden Land
TTITLE9=Just One Thought And A Half
TTITLE10=Maybe Sunday Night
EXTD=YEAR: 2007
EXTT0=
EXTT1=
EXTT2=
EXTT3=
EXTT4=
EXTT5=
EXTT6=
EXTT7=
EXTT8=
EXTT9=
EXTT10=
PLAYORDER=
